# Blender v2.77 (sub 0) OBJ File: ''
# www.blender.org
mtllib diamond.mtl
o Icosphere
v 0.000000 -1.250000 -0.000000
v 0.904500 -0.559020 0.657150
v -0.345482 -0.559020 1.063300
v 0.904500 -0.559020 -0.657150
v -1.118030 -0.559020 -0.000000
v -0.345482 -0.559020 -1.063300
v 1.118030 0.559018 0.000000
v 0.345482 0.559017 1.063300
v -0.904500 0.559018 0.657150
v -0.904500 0.559018 -0.657150
v 0.345482 0.559018 -1.063300
v 0.000000 1.250000 0.000000
vt 0.2887 0.3334
vt 0.2887 0.1667
vt 0.4330 0.2500
vt 0.1444 0.2501
vt 0.1444 0.0834
vt 0.1444 0.4167
vt 0.0001 0.3334
vt 0.0001 0.1667
vt 0.2887 0.0001
vt 0.4330 0.0834
vt 0.0001 0.5000
vt 0.5844 0.0001
vt 0.7357 0.1100
vt 0.5844 0.1591
vt 0.1444 0.9166
vt 0.0001 0.9999
vt 0.0001 0.8333
vt 0.1444 0.5833
vt 0.6779 0.2877
vt 0.4332 0.1100
vt 0.1444 0.7500
vt 0.0001 0.6666
vt 0.4910 0.2877
vn 0.1876 -0.7947 0.5774
vn 0.6071 -0.7947 0.0000
vn -0.4911 -0.7947 0.3568
vn -0.4911 -0.7947 -0.3568
vn 0.1876 -0.7947 -0.5774
vn 0.9822 -0.1876 0.0000
vn 0.3035 -0.1876 0.9342
vn -0.7947 -0.1876 0.5774
vn -0.7947 -0.1876 -0.5774
vn 0.3035 -0.1876 -0.9342
vn 0.7947 0.1876 0.5774
vn -0.3035 0.1876 0.9342
vn -0.9822 0.1876 0.0000
vn -0.3035 0.1876 -0.9342
vn 0.7947 0.1876 -0.5774
vn 0.4911 0.7947 0.3568
vn -0.1876 0.7947 0.5774
vn -0.6071 0.7947 0.0000
vn -0.1876 0.7947 -0.5774
vn 0.4911 0.7947 -0.3568
usemtl timantti
s 1
f 1/1/1 2/2/1 3/3/1
f 2/2/2 1/4/2 4/5/2
f 1/4/3 3/6/3 5/7/3
f 1/4/4 5/7/4 6/8/4
f 1/4/5 6/8/5 4/5/5
f 2/2/6 4/5/6 7/9/6
f 3/3/7 2/2/7 8/10/7
f 5/7/8 3/6/8 9/11/8
f 6/12/9 5/13/9 10/14/9
f 4/15/10 6/16/10 11/17/10
f 2/2/11 7/9/11 8/10/11
f 3/6/12 8/18/12 9/11/12
f 5/13/13 9/19/13 10/14/13
f 6/12/14 10/14/14 11/20/14
f 4/15/15 11/17/15 7/21/15
f 8/18/16 7/21/16 12/22/16
f 9/11/17 8/18/17 12/22/17
f 10/14/18 9/19/18 12/23/18
f 11/20/19 10/14/19 12/23/19
f 7/21/20 11/17/20 12/22/20
